<svg width="240" height="240" viewBox="0 0 240 240" fill="none" xmlns="http://www.w3.org/2000/svg" role="img" aria-label="Kruger Wild emblem (monochrome)">
  <g fill="currentColor" stroke="currentColor">
    <circle cx="120" cy="120" r="115" fill="none" stroke-width="2.5"></circle>
    <circle cx="120" cy="120" r="103" fill="none" stroke-width="1" opacity="0.5"></circle>
  </g>
  <clipPath id="ringm"><circle cx="120" cy="120" r="103"></circle></clipPath>
  <g clip-path="url(#ringm)" fill="currentColor">
    <circle cx="120" cy="158" r="44" opacity="0.92"></circle>
  </g>
  <g fill="none" stroke="currentColor" stroke-width="4.5" stroke-linecap="round" stroke-linejoin="round">
    <path d="M120 158 L120 96"></path>
    <path d="M120 100 C113 92 104 90 96 88"></path>
    <path d="M120 100 C127 92 136 90 144 88"></path>
    <path d="M120 116 C112 110 106 108 99 107"></path>
    <path d="M120 116 C128 110 134 108 141 107"></path>
  </g>
  <path d="M62 90 C76 70 102 64 120 64 C138 64 164 70 178 90 C158 82 142 80 120 80 C98 80 82 82 62 90 Z" fill="currentColor"></path>
  <ellipse cx="120" cy="84" rx="62" ry="9" fill="currentColor"></ellipse>
</svg>